<svg id="图层_1" data-name="图层 1" xmlns="http://www.w3.org/2000/svg" viewBox="0 0 54 54"><defs><style>.cls-1{fill:#040000;}</style></defs><title>未标题-1</title><path class="cls-1" d="M39.78,15.36a.09.09,0,0,0,0,0A30.32,30.32,0,0,0,32.26,13a.11.11,0,0,0-.12.06A21.09,21.09,0,0,0,31.2,15a28,28,0,0,0-8.4,0,19.35,19.35,0,0,0-.95-1.91.12.12,0,0,0-.12-.06,30.23,30.23,0,0,0-7.48,2.32l0,0A31,31,0,0,0,8.78,36.27a.13.13,0,0,0,0,.09A30.48,30.48,0,0,0,18,41a.12.12,0,0,0,.13,0A21.76,21.76,0,0,0,20,37.9a.12.12,0,0,0-.05-.16h0a20.07,20.07,0,0,1-2.87-1.37.12.12,0,0,1,0-.16l0,0,.57-.45a.11.11,0,0,1,.12,0,21.74,21.74,0,0,0,18.47,0,.11.11,0,0,1,.12,0l.57.45a.12.12,0,0,1,0,.16l0,0A18.84,18.84,0,0,1,34,37.74a.12.12,0,0,0-.07.15h0A24.44,24.44,0,0,0,35.85,41,.12.12,0,0,0,36,41a30.38,30.38,0,0,0,9.19-4.64.12.12,0,0,0,0-.08,30.79,30.79,0,0,0-5.43-20.91ZM20.91,32.1a3.53,3.53,0,0,1-3.3-3.7,3.51,3.51,0,0,1,3.3-3.7,3.49,3.49,0,0,1,3.3,3.7A3.51,3.51,0,0,1,20.91,32.1Zm12.21,0a3.53,3.53,0,0,1-3.3-3.7,3.51,3.51,0,0,1,3.3-3.7,3.49,3.49,0,0,1,3.3,3.7A3.5,3.5,0,0,1,33.12,32.1Z"/></svg>