<svg xmlns="http://www.w3.org/2000/svg" viewBox="0 0 512.33 57"><defs><style>.cls-1{fill:#211e1e;}</style></defs><title>资源 1</title><g id="图层_2" data-name="图层 2"><g id="图层_1-2" data-name="图层 1"><path class="cls-1" d="M129.29,57H78.85l13-12.45h37.46a4.91,4.91,0,1,0,0-9.81H96.17a16.66,16.66,0,0,1-12.24-5.09,16.74,16.74,0,0,1-5.08-12.27A16.74,16.74,0,0,1,83.93,5.11,16.66,16.66,0,0,1,96.17,0h47.24l-13,12.45H96.17a4.83,4.83,0,0,0-4.89,4.91,4.83,4.83,0,0,0,4.89,4.91h33.12a16.66,16.66,0,0,1,12.23,5.09,16.74,16.74,0,0,1,5.08,12.27,16.74,16.74,0,0,1-5.08,12.27A16.66,16.66,0,0,1,129.29,57"/><polygon class="cls-1" points="159.8 0 147.65 12.56 175.23 12.56 175.23 57 187.57 57 187.57 12.56 202.82 12.56 214.79 0 159.8 0"/><path class="cls-1" d="M282.35,57H264.63L249.68,42.57H233.07V57H220.89V42.2l12.18-12h34.7a4.64,4.64,0,0,0,3.69-1.48q3.5-3.51,3.51-7.4A8.44,8.44,0,0,0,272.29,15a8.85,8.85,0,0,0-6.37-2.59h-45V12L233.07,0h32.85a20.55,20.55,0,0,1,15,6.2,20.41,20.41,0,0,1,6.27,15.08,20.45,20.45,0,0,1-5.81,14.62,20.79,20.79,0,0,1-14.12,6.66Z"/><path class="cls-1" d="M326.75,16.75,303.27,57H290.11L321.22,3.59A7,7,0,0,1,323.53,1,5.45,5.45,0,0,1,326.6,0a6.37,6.37,0,0,1,5.68,3.57L363.39,57H350.08Z"/><path class="cls-1" d="M36.65,16.74,13.16,57H0L31.11,3.58A7,7,0,0,1,33.43.94,5.45,5.45,0,0,1,36.5,0a6.37,6.37,0,0,1,5.68,3.58L73.3,57H60Z"/><path class="cls-1" d="M432.45,57H414.74L399.79,42.57H383.18V57H371V42.2l12.18-12h34.69a4.64,4.64,0,0,0,3.69-1.48q3.5-3.51,3.51-7.4A8.44,8.44,0,0,0,422.39,15,8.85,8.85,0,0,0,416,12.41H371V12L383.18,0H416A20.54,20.54,0,0,1,431,6.21a20.41,20.41,0,0,1,6.28,15.08,20.45,20.45,0,0,1-5.81,14.62,20.79,20.79,0,0,1-14.12,6.66Z"/><polygon class="cls-1" points="480.54 29.03 512.33 2.65 495.55 2.65 470.66 23.37 470.48 23.54 460.42 23.54 460.42 0 448.94 11.51 448.94 57 460.42 57 460.42 35.23 471.19 35.23 495.55 56.29 512.33 56.29 480.54 29.03"/></g></g></svg>