<?xml version="1.0" standalone="no"?><!DOCTYPE svg PUBLIC "-//W3C//DTD SVG 1.1//EN" "http://www.w3.org/Graphics/SVG/1.1/DTD/svg11.dtd"><svg t="1712372005950" class="icon" viewBox="0 0 1024 1024" version="1.1" xmlns="http://www.w3.org/2000/svg" p-id="3158" xmlns:xlink="http://www.w3.org/1999/xlink" width="200" height="200"><path d="M512 128c-213.589333 0-384 170.410667-384 384s170.410667 384 384 384 384-170.410667 384-384-170.410667-384-384-384z m-36.949333 150.229333c10.069333-10.069333 18.688-16.768 35.029333-16.768 18.261333-1.450667 35.029333 7.168 41.770667 20.138667 7.68 9.130667 11.989333 29.269333 10.069333 41.301333 0 3.328-2.389333 25.898667-3.370667 32.128l-13.44 170.410667c0 16.810667-3.370667 33.578667-10.069333 46.549333-3.370667 10.069333-13.44 16.810667-26.88 16.810667a25.258667 25.258667 0 0 1-23.509333-16.810667c-6.741333-16.810667-10.069333-30.250667-10.069334-46.549333L465.450667 358.4c-3.370667-30.250667-3.370667-20.181333-3.370667-36.949333 0-16.341333 3.370667-29.781333 12.970667-43.221334z m73.898666 470.912a48.128 48.128 0 0 1-33.578666 13.397334c-13.44 0-26.88-3.328-36.992-13.397334a55.338667 55.338667 0 0 1-16.768-39.850666c0-13.44 3.370667-26.88 13.44-36.949334 10.069333-10.112 23.509333-16.810667 36.949333-16.810666 13.44 0 26.88 6.698667 36.949333 16.768 10.069333 10.112 13.44 23.552 13.44 36.992-0.469333 16.298667-3.84 29.738667-13.44 39.850666z" p-id="3159"></path></svg>