<svg width="916" height="160" viewBox="0 0 916 160" fill="none" xmlns="http://www.w3.org/2000/svg">
<path fill-rule="evenodd" clip-rule="evenodd" d="M161.665 40L164.982 45.747L178.165 68.578L184.751 80C169.356 106.671 153.961 133.329 138.566 160H86.0269L99.21 137.169H125.383L141.203 109.763L158.384 80L151.798 68.578L138.615 45.747L125.383 22.831H59.3682L46.1357 45.747H112.248L132.017 80L112.199 114.338H85.832L59.4648 160H46.1851L23.0928 120C15.395 106.668 7.69727 93.3355 0 80L6.59814 68.578L19.7812 45.747L23.0981 40L46.1968 0H138.566L161.665 40ZM32.9556 68.5735L32.9531 68.578L26.355 80L52.7222 125.662C59.3071 114.277 65.8809 102.892 72.4541 91.507H99.0161L105.65 80L99.064 68.578L99.0161 68.493C92.3984 68.493 77.3843 68.5143 62.3599 68.5355C51.5117 68.5508 40.6577 68.5662 32.9556 68.5735ZM300.722 125.865V110.023L333.964 80.9189C336.456 78.665 338.577 76.603 340.328 74.734C342.078 72.835 343.413 70.936 344.333 69.038C345.253 67.1089 345.712 65.0179 345.712 62.7629C345.712 60.241 345.164 58.09 344.066 56.3099C342.968 54.501 341.455 53.106 339.527 52.127C337.598 51.148 335.388 50.6589 332.896 50.6589C330.374 50.6589 328.164 51.178 326.265 52.2159C324.367 53.225 322.883 54.693 321.815 56.6219C320.777 58.55 320.258 60.894 320.258 63.653H299.387C299.387 57.452 300.781 52.097 303.57 47.588C306.359 43.079 310.275 39.6069 315.318 37.1749C320.391 34.712 326.28 33.481 332.985 33.481C339.898 33.481 345.905 34.6379 351.008 36.952C356.111 39.266 360.057 42.5 362.845 46.653C365.664 50.777 367.073 55.569 367.073 61.027C367.073 64.498 366.376 67.9399 364.981 71.3519C363.587 74.7629 361.08 78.5309 357.461 82.655C353.871 86.779 348.768 91.718 342.152 97.474L336.701 102.502L327.242 110.433C326.565 111.001 326.52 112.027 327.145 112.653C327.696 113.204 328.576 113.242 329.176 112.745C332.8 109.744 335.121 108.11 340.328 108.11H368.186V125.865H300.722ZM661.69 73.531V57.511H649.364V41.134H627.602V57.511H617.91V73.531H627.602V106.774C627.543 111.402 628.463 115.244 630.362 118.299C632.29 121.355 635.064 123.61 638.683 125.064C642.332 126.488 646.708 127.081 651.811 126.844C654.422 126.725 656.662 126.443 658.531 125.998C660.429 125.553 661.898 125.182 662.936 124.886V109.355C658.495 110.065 655.699 110.065 654.934 110.065C653.096 110.065 650.918 109.297 649.987 107.619C649.571 106.788 649.364 105.706 649.364 104.371V73.531H661.69ZM740.07 57.5129V125.866H761.83V88.752C761.83 86.023 762.41 83.65 763.57 81.632C764.76 79.585 766.37 77.998 768.42 76.871C770.5 75.714 772.83 75.135 775.41 75.135C776.71 75.135 778.2 75.239 779.86 75.447C781.55 75.6539 782.91 75.936 783.95 76.292V57.379C783.03 57.1119 782.04 56.9189 780.97 56.801C779.9 56.652 778.86 56.578 777.85 56.578C774.12 56.578 770.84 57.691 768.02 59.916C765.6 61.8019 762.04 66.282 760.3 70.3669C759.93 71.223 758.78 71.513 758.13 70.854C757.74 70.465 757.66 69.862 757.93 69.385L758.96 67.6169C760.43 65.08 761.21 62.197 761.21 59.262V57.5129H740.07ZM816.21 127.157C809.06 127.157 802.89 125.747 797.7 122.929C792.54 120.081 788.56 116.031 785.77 110.78C783.01 105.499 781.63 99.225 781.63 91.9559C781.63 84.895 783.03 78.725 785.82 73.444C788.6 68.133 792.54 64.0099 797.61 61.072C802.68 58.106 808.66 56.6219 815.54 56.6219C820.41 56.6219 824.86 57.379 828.89 58.892C832.93 60.405 836.41 62.645 839.35 65.6119C842.29 68.5779 844.57 72.2419 846.2 76.603C847.84 80.9349 848.65 85.9039 848.65 91.511V96.9399H803.08V97.519C803.08 100.308 803.63 102.755 804.73 104.862C805.83 106.938 807.38 108.555 809.4 109.712C811.42 110.869 813.82 111.448 816.61 111.448C818.54 111.448 820.29 111.181 821.86 110.647C823.43 110.113 824.78 109.326 825.91 108.288C827.04 107.25 827.88 105.974 828.45 104.461L848.43 105.04C847.6 109.519 845.77 113.421 842.96 116.743C840.17 120.036 836.5 122.603 831.96 124.442C827.42 126.252 822.17 127.157 816.21 127.157ZM804.86 78.3829C803.79 80.129 803.2 82.102 803.1 84.302H828.4C828.37 81.988 827.82 79.926 826.76 78.116C825.69 76.3069 824.22 74.897 822.35 73.889C820.51 72.85 818.39 72.3309 815.99 72.3309C813.55 72.3309 811.37 72.8799 809.45 73.978C807.52 75.046 805.99 76.514 804.86 78.3829ZM913.44 78.3829L893.46 78.917C893.25 77.493 892.69 76.232 891.77 75.135C890.85 74.007 889.65 73.132 888.16 72.509C886.71 71.857 885.02 71.53 883.09 71.53C880.57 71.53 878.42 72.035 876.64 73.043C874.89 74.0519 874.03 75.417 874.06 77.137C874.03 78.472 874.56 79.629 875.66 80.608C876.79 81.587 878.79 82.374 881.67 82.967L894.84 85.459C901.66 86.764 906.74 88.93 910.06 91.9559C913.41 94.9819 915.1 98.9869 915.13 103.972C915.1 108.659 913.71 112.738 910.95 116.209C908.22 119.68 904.48 122.38 899.73 124.309C894.99 126.207 889.56 127.157 883.45 127.157C873.69 127.157 865.99 125.154 860.35 121.149C854.74 117.114 851.54 111.715 850.74 104.951L872.23 104.417C872.71 106.909 873.94 108.807 875.93 110.113C877.91 111.418 880.45 112.071 883.54 112.071C886.32 112.071 888.59 111.552 890.34 110.513C892.09 109.475 892.98 108.095 893.01 106.375C892.98 104.832 892.3 103.601 890.97 102.681C889.63 101.732 887.54 100.99 884.69 100.456L872.77 98.186C865.91 96.94 860.81 94.641 857.46 91.2889C854.11 87.907 852.44 83.605 852.47 78.3829C852.44 73.8149 853.66 69.913 856.12 66.6799C858.59 63.416 862.09 60.924 866.62 59.203C871.16 57.483 876.52 56.6219 882.69 56.6219C891.95 56.6219 899.24 58.566 904.58 62.452C909.92 66.309 912.88 71.619 913.44 78.3829ZM710.94 96.361V57.512H732.66V125.865H711.92V122.562C711.92 119.494 712.63 116.467 713.99 113.719L714.99 111.716C715.25 111.179 715.08 110.528 714.58 110.196C713.94 109.767 713.06 110.052 712.74 110.756C710.83 114.975 706.732 120.902 703.465 123.106C699.846 125.539 695.47 126.755 690.338 126.755C685.68 126.755 681.586 125.687 678.055 123.551C674.525 121.415 671.781 118.434 669.823 114.606C667.865 110.75 666.871 106.24 666.841 101.078V57.512H688.602V96.806C688.632 100.514 689.611 103.437 691.539 105.573C693.467 107.709 696.093 108.777 699.416 108.777C701.582 108.777 703.525 108.302 705.245 107.353C706.996 106.374 708.375 104.965 709.384 103.125C710.42 101.256 710.94 99.001 710.94 96.361ZM571.885 86.8829V125.866H550.124V57.512H570.817V60.937V62.108C570.817 64.132 570.229 66.112 569.125 67.808L567.258 70.677C566.919 71.198 567.062 71.894 567.579 72.239C568.191 72.647 569.029 72.3749 569.354 71.715C571.364 67.633 576.036 62.36 579.317 60.2269C582.966 57.824 587.312 56.6219 592.355 56.6219C597.161 56.6219 601.33 57.705 604.86 59.871C608.42 62.007 611.179 65.0029 613.137 68.86C615.125 72.687 616.104 77.167 616.074 82.299V125.866H594.313V86.572C594.343 82.774 593.379 79.8069 591.421 77.671C589.492 75.535 586.808 74.467 583.366 74.467C581.082 74.467 579.064 74.972 577.314 75.98C575.593 76.959 574.258 78.369 573.309 80.208C572.389 82.047 571.915 84.272 571.885 86.8829ZM493.066 122.929C498.257 125.747 504.428 127.157 511.578 127.157C517.541 127.157 522.792 126.252 527.331 124.442C531.871 122.603 535.534 120.036 538.323 116.743C541.142 113.421 542.966 109.519 543.797 105.04L523.816 104.461C523.252 105.974 522.407 107.25 521.279 108.288C520.152 109.326 518.802 110.113 517.23 110.647C515.657 111.181 513.907 111.448 511.979 111.448C509.19 111.448 506.787 110.869 504.769 109.712C502.752 108.555 501.194 106.938 500.097 104.862C498.999 102.755 498.45 100.308 498.45 97.519V96.9399H544.019V91.511C544.019 85.9039 543.203 80.9349 541.572 76.603C539.94 72.2419 537.656 68.5779 534.719 65.6119C531.782 62.645 528.296 60.405 524.261 58.892C520.226 57.379 515.776 56.6219 510.911 56.6219C504.028 56.6219 498.05 58.106 492.977 61.072C487.903 64.0099 483.973 68.133 481.184 73.444C478.395 78.725 477.001 84.895 477.001 91.9559C477.001 99.225 478.38 105.499 481.139 110.78C483.928 116.031 487.903 120.081 493.066 122.929ZM523.771 84.302H498.463C498.571 82.102 499.16 80.129 500.23 78.3829C501.358 76.514 502.885 75.046 504.814 73.978C506.742 72.8799 508.923 72.3309 511.356 72.3309C513.759 72.3309 515.88 72.85 517.719 73.889C519.588 74.897 521.057 76.3069 522.125 78.116C523.193 79.926 523.742 81.988 523.771 84.302ZM224.164 34.7269V125.865H246.192V97.563H261.144C268.116 97.563 274.139 96.272 279.212 93.691C284.285 91.11 288.186 87.476 290.916 82.788C293.675 78.071 295.054 72.568 295.054 66.278C295.054 60.019 293.704 54.53 291.005 49.813C288.305 45.066 284.463 41.373 279.479 38.7319C274.524 36.062 268.636 34.7269 261.812 34.7269H224.164ZM257.05 80.207H246.192V52.483H257.05C260.343 52.483 263.117 53.047 265.372 54.174C267.627 55.302 269.333 56.904 270.49 58.98C271.647 61.027 272.225 63.46 272.225 66.278C272.225 69.067 271.647 71.515 270.49 73.621C269.333 75.698 267.627 77.3149 265.372 78.4719C263.147 79.629 260.373 80.207 257.05 80.207ZM421.75 34.7269L431.941 68.103L437.036 84.791L439.584 93.135L439.643 93.328C440.29 95.456 440.618 97.6669 440.618 99.891V103.554C440.618 104.537 441.415 105.334 442.398 105.334C443.382 105.334 444.178 104.537 444.178 103.554V100.164C444.178 97.765 444.604 95.385 445.436 93.135L447.983 84.791L453.079 68.103L463.269 34.7269H487.923L457.173 125.865H427.847L397.096 34.7269H421.75Z" fill="white"/>
</svg>
