<svg id="图层_1" data-name="图层 1" xmlns="http://www.w3.org/2000/svg" viewBox="0 0 54 54"><defs></defs><title>未标题-1</title><path class="cls-1" d="M27,9.33a19.51,19.51,0,0,0-6.45,37.93c1,.26.87-.47.87-1V42.91c-5.92.69-6.16-3.22-6.55-3.88-.8-1.37-2.7-1.72-2.13-2.37,1.35-.69,2.72.17,4.31,2.52,1.15,1.71,3.4,1.42,4.54,1.13a5.5,5.5,0,0,1,1.51-2.65c-6.13-1.1-8.69-4.84-8.69-9.29a8.58,8.58,0,0,1,2.11-5.74,7.61,7.61,0,0,1,.21-5.23c2.53-.23,5.17,1.81,5.37,2A19,19,0,0,1,27,18.79a19,19,0,0,1,4.95.61c.49-.38,2.93-2.13,5.29-1.91a7.66,7.66,0,0,1,.24,5.15,8.59,8.59,0,0,1,2.13,5.77c0,4.46-2.57,8.2-8.72,9.28a5.56,5.56,0,0,1,1.66,4v4.91c0,.39,0,.78.65.78A19.51,19.51,0,0,0,27,9.33Z"/></svg>