<svg id="图层_1" data-name="图层 1" xmlns="http://www.w3.org/2000/svg" viewBox="0 0 54 54"><defs></defs><title>未标题-1</title><path class="cls-1" d="M47.66,16.59A35.92,35.92,0,0,1,48.39,23l.11,3.89V31a36.09,36.09,0,0,1-.74,6.52,5.22,5.22,0,0,1-1.37,2.31A5,5,0,0,1,44,41.19a66.24,66.24,0,0,1-9.57.84l-7.36.11L19.9,42c-5-.21-8.2-.42-9.57-.84a5,5,0,0,1-2.42-1.37,4.82,4.82,0,0,1-1.58-2.31A37.38,37.38,0,0,1,5.61,31L5.5,27.11c0-1.16,0-2.42.11-3.89a35.92,35.92,0,0,1,.74-6.41,5,5,0,0,1,1.47-2.63,7.12,7.12,0,0,1,2.42-1.47A57.42,57.42,0,0,1,19.8,12l7.25-.11L34.2,12a59.15,59.15,0,0,1,9.67.74,5,5,0,0,1,2.42,1.37A5.93,5.93,0,0,1,47.66,16.59Zm-25,16.93,11.25-6.41L22.64,20.69Z"/></svg>